<?xml version="1.0" encoding="utf-8"?>
<!-- Generator: Adobe Illustrator 24.2.0, SVG Export Plug-In . SVG Version: 6.00 Build 0)  -->
<svg version="1.1" id="圖層_1" xmlns="http://www.w3.org/2000/svg" xmlns:xlink="http://www.w3.org/1999/xlink" x="0px" y="0px"
	 viewBox="0 0 980.47 2076.35" style="enable-background:new 0 0 980.47 2076.35;" xml:space="preserve">
<style type="text/css">
	.st0{fill:#4C4C4C;}
	.st1{fill:#2B2B2B;}
	.st2{fill:#FFFFFF;}
</style>
<g>
	<path d="M717.57,673.16c-61.92-0.01-123.87-1.13-185.74,0.51c-27.04,0.72-28.55-13.5-27.72-32.82
		c0.77-17.89-4.19-36.35,26.52-36.35c64.42-0.01,74.42-15.95,51.2-73.71c-28.91-71.93-28.91-71.93-107.29-71.93
		c-50.04,0-100.1,0.57-150.12-0.3c-16.77-0.29-26.37,5.36-33.42,20.34c-12.07,25.63-26.27,50.34-35.13,77.34
		c-8.95,27.26-2.52,38.26,26.07,44.9c8.2,1.91,16.74,2.34,25.07,3.74c10.2,1.71,25.24-5.05,29.26,7.99
		c5.35,17.35,4.9,36.33-0.37,54.06c-2.15,7.24-11.37,6.07-18,6.08c-83.97,0.12-167.94-0.1-251.91,0.24
		c-15.21,0.06-21.87-5.84-20.98-20.69c0.5-8.28,0.59-16.65-0.07-24.92c-1.21-15.1,4.13-23.25,20.86-23.86
		c45.92-1.68,75.55-28.03,94.63-65.72c44.07-87.06,86.7-174.84,129.6-262.46c38.88-79.4,77.61-158.87,115.78-238.6
		c7.01-14.64,16.09-21.35,33.13-20.85c35.59,1.03,71.29,1.39,106.84-0.12c20.15-0.85,30.26,6.32,38.15,24.37
		C647.35,185.49,711.67,330.2,775.81,475c7.09,16,14.6,31.82,22.24,47.57c22.18,45.73,55.02,77.57,109.98,80.15
		c36.92,1.74,23.08,29.3,25.17,48.24c2.5,22.62-13.59,22.37-29.88,22.3C841.4,673.02,779.48,673.17,717.57,673.16z"/>
	<path d="M483.27,1366.57c-107.67,0-215.34-0.49-323.01,0.41c-22.09,0.19-32.54-4.81-32.23-28.62c0.51-39.3,0.88-41.5,30.86-43.21
		c9.31-0.53,18.65-0.84,27.9-1.9c24.8-2.84,40.85-15.4,44.08-40.56c1.79-13.96,3.34-28.07,3.37-42.11
		c0.27-113.79,0.17-227.59,0.14-341.38c0-6.64-0.19-13.29-0.57-19.92c-2.8-48.56-17.52-63.29-66.46-66.68
		c-35.61-2.47-50.93-28.88-37.13-62.82c3.72-9.16,10.58-9.77,18.29-9.78c125.47-0.06,250.95,0.06,376.42-0.19
		c14.36-0.03,19.84,6.75,20.01,19.63c0.11,8.3-0.3,16.64,0.31,24.91c1.51,20.31-8.09,28.24-28.49,28.35
		c-13.36,0.07-26.86,3.16-40.03,6.05c-17.24,3.78-27.47,14.72-32.22,31.65c-4.57,16.29-5.34,32.77-5.36,49.37
		c-0.1,118.78-0.23,237.56,0,356.34c0.09,47.74,13.86,63.59,61.87,66.96c56.74,3.98,113.2,0.69,169.76-7.39
		c61.56-8.8,91.35-44.73,102.61-101.02c7.5-37.52,32.61-51.11,70.14-39.75c13.32,4.03,9.87,13.76,9.34,22.33
		c-3.67,58.82-8.21,117.6-11.18,176.45c-1.07,21.21-13.06,23.15-30.32,23.09C702.01,1366.37,592.64,1366.56,483.27,1366.57z"/>
	<path d="M484.41,2059.91c-108.52,0-217.04-0.63-325.54,0.5c-23.87,0.25-31.05-7.95-30.73-30.13c0.55-37.92,1.04-40.03,29.72-41.72
		c8.46-0.5,16.97-0.59,25.37-1.56c31.54-3.67,43.25-13.94,48.52-44.79c2.36-13.83,2.61-28.12,2.64-42.2
		c0.2-111.3,0.13-222.6,0.09-333.9c0-8.3-0.18-16.62-0.7-24.9c-2.97-47.06-17.66-61.68-65.28-65.2
		c-37.14-2.74-51.36-26.06-38.57-61.86c3.75-10.49,11.48-10.85,20.09-10.85c124.62-0.03,249.25,0.12,373.87-0.2
		c15.64-0.04,21.27,7.17,21.22,21.1c-0.04,9.14-0.23,18.28,0.06,27.4c0.53,16.81-7.84,24.43-24.7,23.9
		c-3.38-0.11-6.78,0.27-10.16,0.53c-53.64,4.12-69.94,18.84-70.38,71.06c-1.07,127.9-0.8,255.82-0.32,383.73
		c0.13,33.27,11.6,48.14,45.46,52.55c75.37,9.82,150.45,7.02,223.89-14.84c16.92-5.04,29.39-15.98,39.5-29.9
		c12.54-17.26,19.48-36.79,24.2-57.14c10.23-44.1,21.45-51.2,67.32-43.74c10.94,1.78,14.16,6.95,13.49,16.81
		c-4.2,62.11-8.45,124.23-12.25,186.37c-1.19,19.39-14.43,19.09-28.71,19.07C703.14,2059.85,593.77,2059.9,484.41,2059.91z"/>
</g>
</svg>
