<?xml version="1.0" encoding="utf-8"?>
<!-- Generator: Adobe Illustrator 24.2.0, SVG Export Plug-In . SVG Version: 6.00 Build 0)  -->
<svg version="1.1" id="圖層_1" xmlns="http://www.w3.org/2000/svg" xmlns:xlink="http://www.w3.org/1999/xlink" x="0px" y="0px"
	 viewBox="0 0 3709.33 2086.5" style="enable-background:new 0 0 3709.33 2086.5;" xml:space="preserve">
<style type="text/css">
	.st0{fill:#4C4C4C;}
	.st1{fill:#2B2B2B;}
	.st2{fill:#FFFFFF;}
</style>
<g>
	<path d="M1066.28,1765.78c-98.07-0.01-196.19-2.65-294.19,1.21c-42.82,1.69-45.21-31.78-43.9-77.28
		c1.21-42.13-6.63-85.59,42.01-85.59c102.04-0.01,117.87-37.56,81.09-173.55c-45.8-169.35-45.8-169.35-169.93-169.35
		c-79.26,0-158.54,1.33-237.78-0.71c-26.57-0.68-41.76,12.62-52.93,47.88c-19.12,60.35-41.61,118.51-55.64,182.08
		c-14.17,64.18-3.99,90.07,41.29,105.72c12.98,4.49,26.51,5.51,39.71,8.81c16.16,4.04,39.97-11.9,46.34,18.8
		c8.48,40.86,7.75,85.53-0.58,127.28c-3.4,17.04-18.01,14.29-28.5,14.31c-133,0.27-266-0.24-398.99,0.57
		c-24.1,0.15-34.64-13.76-33.24-48.72c0.78-19.5,0.93-39.21-0.11-58.66c-1.91-35.55,6.55-54.74,33.04-56.19
		c72.73-3.96,119.67-65.99,149.89-154.73c69.81-204.99,137.32-411.64,205.28-617.95c61.58-186.94,122.92-374.05,183.39-561.76
		c11.1-34.47,25.49-50.26,52.48-49.1c56.37,2.43,112.91,3.27,169.23-0.28c31.91-2.01,47.93,14.88,60.42,57.37
		c100.42,341.64,202.3,682.37,303.88,1023.28c11.22,37.66,23.12,74.92,35.22,112.01c35.12,107.67,87.14,182.62,174.2,188.7
		c58.48,4.09,36.55,68.99,39.86,113.57c3.96,53.25-21.53,52.67-47.33,52.51C1262.42,1765.44,1164.35,1765.79,1066.28,1765.78z"/>
	<path d="M1978.9,1769.9c-170.54,0.01-341.08-1.16-511.6,0.97c-34.99,0.44-51.54-11.33-51.06-67.39
		c0.81-92.53,1.4-97.7,48.88-101.73c14.74-1.25,29.54-1.97,44.19-4.46c39.28-6.68,64.7-36.26,69.82-95.5
		c2.84-32.87,5.29-66.09,5.34-99.15c0.43-267.92,0.27-535.84,0.22-803.76c0-15.64-0.3-31.3-0.91-46.91
		c-4.43-114.32-27.75-149.02-105.27-157c-56.41-5.81-80.66-67.99-58.81-147.9c5.89-21.56,16.75-23.01,28.97-23.02
		c198.73-0.15,397.47,0.14,596.2-0.45c22.75-0.07,31.42,15.9,31.7,46.22c0.18,19.55-0.48,39.18,0.5,58.64
		c2.39,47.81-12.81,66.49-45.12,66.74c-21.17,0.16-42.54,7.43-63.4,14.24c-27.3,8.91-43.52,34.66-51.03,74.53
		c-7.23,38.35-8.46,77.15-8.49,116.24c-0.16,279.65-0.37,559.31,0,838.96c0.15,112.41,21.96,149.72,97.99,157.66
		c89.87,9.38,179.3,1.63,268.88-17.4c97.51-20.72,144.68-105.32,162.52-237.84c11.89-88.33,51.66-120.34,111.1-93.58
		c21.1,9.5,15.64,32.4,14.79,52.57c-5.81,138.49-13,276.87-17.71,415.43c-1.7,49.93-20.69,54.51-48.03,54.37
		C2325.35,1769.44,2152.12,1769.9,1978.9,1769.9z"/>
	<path d="M3124.01,1769.9c-171.88,0.01-343.76-1.48-515.62,1.17c-37.81,0.58-49.19-18.71-48.68-70.94
		c0.87-89.28,1.65-94.24,47.07-98.22c13.4-1.18,26.88-1.38,40.19-3.68c49.96-8.65,68.51-32.82,76.85-105.45
		c3.74-32.56,4.14-66.2,4.18-99.35c0.32-262.05,0.21-524.1,0.14-786.15c0-19.55-0.29-39.13-1.12-58.63
		c-4.7-110.81-27.97-145.23-103.39-153.51c-58.82-6.46-81.35-61.35-61.09-145.64c5.93-24.69,18.18-25.55,31.82-25.55
		c197.39-0.08,394.78,0.29,592.16-0.47c24.78-0.1,33.69,16.87,33.6,49.68c-0.06,21.51-0.36,43.03,0.09,64.52
		c0.84,39.58-12.42,57.52-39.13,56.27c-5.35-0.25-10.73,0.63-16.08,1.24c-84.96,9.7-110.78,44.37-111.47,167.31
		c-1.7,301.14-1.27,602.31-0.51,903.46c0.2,78.33,18.37,113.35,72.01,123.74c119.38,23.11,238.3,16.52,354.62-34.94
		c26.8-11.86,46.55-37.63,62.57-70.41c19.86-40.64,30.85-86.61,38.33-134.54c16.2-103.83,33.97-120.54,106.62-102.98
		c17.33,4.19,22.43,16.37,21.37,39.57c-6.65,146.24-13.38,292.48-19.4,438.79c-1.88,45.65-22.85,44.94-45.47,44.9
		C3470.45,1769.75,3297.23,1769.89,3124.01,1769.9z"/>
</g>
</svg>
